<svg width="228" height="120" viewBox="0 0 228 120" fill="none" xmlns="http://www.w3.org/2000/svg">
<g clip-path="url(#clip0_41_14)">
<mask id="mask0_41_14" style="mask-type:luminance" maskUnits="userSpaceOnUse" x="0" y="0" width="228" height="120">
<path d="M228 0H0V120H228V0Z" fill="white"/>
</mask>
<g mask="url(#mask0_41_14)">
<path d="M0 0H228V120H0V0Z" fill="#CED4DA"/>
<path d="M171 54H31C29.8954 54 29 54.8954 29 56V105C29 106.105 29.8954 107 31 107H171C172.105 107 173 106.105 173 105V56C173 54.8954 172.105 54 171 54Z" fill="#F6F8FA"/>
<path d="M214 54H186C184.895 54 184 54.8954 184 56V88C184 89.1046 184.895 90 186 90H214C215.105 90 216 89.1046 216 88V56C216 54.8954 215.105 54 214 54Z" fill="#F6F8FA"/>
<path opacity="0.3" d="M173 59H29V71H173V59Z" fill="#A7A7F7"/>
<path opacity="0.6" d="M0 0H228V24H0V0Z" fill="#F6F8FA"/>
<path d="M42 9H16C14.3431 9 13 10.3431 13 12C13 13.6569 14.3431 15 16 15H42C43.6569 15 45 13.6569 45 12C45 10.3431 43.6569 9 42 9Z" fill="#353BCA"/>
<path d="M74 36H32C30.3431 36 29 37.3431 29 39C29 40.6569 30.3431 42 32 42H74C75.6569 42 77 40.6569 77 39C77 37.3431 75.6569 36 74 36Z" fill="#D1D5DA"/>
<path d="M95 62H37C35.3431 62 34 63.3431 34 65C34 66.6569 35.3431 68 37 68H95C96.6569 68 98 66.6569 98 65C98 63.3431 96.6569 62 95 62Z" fill="#353BCA"/>
<path d="M82 9H56C54.3431 9 53 10.3431 53 12C53 13.6569 54.3431 15 56 15H82C83.6569 15 85 13.6569 85 12C85 10.3431 83.6569 9 82 9Z" fill="#D1D5DA"/>
<path d="M213 9H187C185.343 9 184 10.3431 184 12C184 13.6569 185.343 15 187 15H213C214.657 15 216 13.6569 216 12C216 10.3431 214.657 9 213 9Z" fill="#DEE0F9"/>
<path d="M29 58C29 53.5817 32.5817 50 37 50H257V170H29V58Z" fill="#161B22"/>
<path opacity="0.3" d="M216 98H42V110H216V98Z" fill="#A7A7F7"/>
<path opacity="0.6" d="M29 58C29 53.5817 32.5817 50 37 50H257V73H29V58Z" fill="#484F58"/>
<path d="M71 59H45C43.3431 59 42 60.3431 42 62C42 63.6569 43.3431 65 45 65H71C72.6569 65 74 63.6569 74 62C74 60.3431 72.6569 59 71 59Z" fill="#353BCA"/>
<path d="M87 85H45C43.3431 85 42 86.3431 42 88C42 89.6569 43.3431 91 45 91H87C88.6569 91 90 89.6569 90 88C90 86.3431 88.6569 85 87 85Z" fill="#6E7681"/>
<path d="M111 59H85C83.3431 59 82 60.3431 82 62C82 63.6569 83.3431 65 85 65H111C112.657 65 114 63.6569 114 62C114 60.3431 112.657 59 111 59Z" fill="#8B949E"/>
</g>
</g>
<defs>
<clipPath id="clip0_41_14">
<rect width="228" height="120" fill="white"/>
</clipPath>
</defs>
</svg>
