<svg width="82" height="71" viewBox="0 0 82 71" fill="none" xmlns="http://www.w3.org/2000/svg">
<g clip-path="url(#clip0_45_67)">
<g clip-path="url(#clip1_45_67)">
<path d="M81.2509 21.8076C81.2509 1.73271 55.3419 -6.72931 43.4951 9.4242C33.1893 7.18142 21.2462 12.5613 18.8383 25.5777C8.57381 27.4077 -0.163401 36.4339 0.0705087 47.8129C0.0741492 53.8087 2.45665 59.5581 6.69503 63.799C10.9334 68.04 16.6814 70.426 22.6772 70.4333H55.108C74.9353 69.8141 81.9388 50.0281 74.894 36.7916C76.9057 34.849 78.5054 32.521 79.5975 29.9466C80.6897 27.3722 81.252 24.6041 81.2509 21.8076ZM60.3366 5.0212C75.2793 5.0212 82.3516 23.046 72.5687 33.3105C69.1032 29.1936 64.2738 26.459 58.9607 25.6052C58.4621 22.3933 57.1724 19.3559 55.2075 16.7665C53.2427 14.1772 50.6646 12.1174 47.7055 10.7726C49.2733 8.96178 51.2133 7.51054 53.3932 6.51796C55.573 5.52538 57.9414 5.01484 60.3366 5.0212Z" fill="#FBB168"/>
</g>
</g>
<defs>
<clipPath id="clip0_45_67">
<rect width="81.1849" height="69.4915" fill="white" transform="translate(0.065918 0.941772)"/>
</clipPath>
<clipPath id="clip1_45_67">
<rect width="81.1849" height="69.4915" fill="white" transform="translate(0.065918 0.941772)"/>
</clipPath>
</defs>
</svg>
