<svg width="303" height="71" viewBox="0 0 303 71" fill="none" xmlns="http://www.w3.org/2000/svg">
<g clip-path="url(#clip0_45_41)">
<g clip-path="url(#clip1_45_41)">
<path d="M92.2439 3.84662C92.2439 2.17834 91.5817 0.825928 90.7649 0.825928C89.9482 0.825928 89.286 2.17834 89.286 3.84662V67.6442C89.286 69.3125 89.9482 70.6649 90.7649 70.6649C91.5817 70.6649 92.2439 69.3125 92.2439 67.6442V3.84662Z" fill="#3C2C32"/>
<g clip-path="url(#clip2_45_41)">
<g clip-path="url(#clip3_45_41)">
<g clip-path="url(#clip4_45_41)">
<g clip-path="url(#clip5_45_41)">
<path d="M107.027 7.66655C106.681 8.3154 106.432 9.00123 106.281 9.72339C106.13 10.4501 106.054 11.1917 106.054 11.9489C106.054 12.5764 106.097 13.2032 106.183 13.8306C106.27 14.458 106.389 15.0848 106.54 15.7123C107.059 15.5611 107.606 15.4313 108.182 15.3229C108.753 15.2146 109.391 15.1283 110.096 15.0634C110.797 14.9985 111.59 14.9447 112.477 14.9012C113.364 14.8577 114.38 14.8149 115.527 14.7714C115.462 15.6363 115.397 16.6317 115.332 17.7561C115.267 18.8806 115.235 20.0706 115.235 21.3248C115.235 22.5141 115.285 23.708 115.384 24.9064C115.48 26.1087 115.668 27.2617 115.949 28.3648C114.824 28.3648 113.743 28.538 112.704 28.8838C111.666 29.2297 110.823 29.7163 110.174 30.3438C109.72 30.0628 109.207 29.7773 108.636 29.4873C108.061 29.1933 107.373 28.9273 106.573 28.6892C105.773 28.4511 104.838 28.2395 103.77 28.0533C102.697 27.8716 101.436 27.7484 99.987 27.6835C100.485 27.0995 100.88 26.4877 101.174 25.8472C101.464 25.2114 101.609 24.5366 101.609 23.8228C101.609 23.5847 101.598 23.3576 101.577 23.1415C101.555 22.9255 101.512 22.6984 101.447 22.4603C101.75 22.4603 102.172 22.5835 102.712 22.8301C103.253 23.0812 103.891 23.4011 104.626 23.7904C105.361 24.1797 106.19 24.6274 107.111 25.1335C108.028 25.6442 109.027 26.1587 110.109 26.6778C110.304 26.1373 110.461 25.406 110.583 24.4847C110.699 23.5678 110.758 22.6225 110.758 21.6492C110.758 20.8057 110.704 20.0271 110.596 19.3134C110.487 18.5996 110.315 18.0916 110.077 17.7886C109.493 17.832 108.844 17.8969 108.13 17.9832C107.416 18.0695 106.681 18.1779 105.924 18.3076C105.167 18.4374 104.41 18.5782 103.653 18.7294C102.896 18.8806 102.172 19.0428 101.479 19.216C101.609 18.3076 101.728 17.3344 101.836 16.2962C101.945 15.2581 101.998 14.1875 101.998 13.0844C101.998 11.8516 101.88 10.6623 101.642 9.51576C101.403 8.36925 100.939 7.34212 100.247 6.43374C100.463 6.45515 100.766 6.49862 101.155 6.56351C101.544 6.62839 102.02 6.66084 102.582 6.66084C103.815 6.66084 104.864 6.44477 105.729 6.01199C106.594 5.57921 107.33 4.84406 107.935 3.80591C108.26 4.02197 108.656 4.24907 109.123 4.4872C109.585 4.72532 110.094 4.94139 110.648 5.13604C111.197 5.3307 111.785 5.48642 112.412 5.60321C113.04 5.72455 113.689 5.78489 114.359 5.78489C114.792 5.78489 115.213 5.74596 115.624 5.6681C116.035 5.59478 116.435 5.50394 116.825 5.39558C116.392 6.5421 115.808 7.50434 115.073 8.28295C114.338 9.06157 113.526 9.45088 112.64 9.45088C112.337 9.45088 111.943 9.40092 111.459 9.30164C110.97 9.20626 110.461 9.07649 109.934 8.91233C109.402 8.75207 108.876 8.5639 108.357 8.34784C107.838 8.13177 107.395 7.90468 107.027 7.66655ZM144.66 30.8304L144.628 30.9277C143.395 30.4949 142.18 30.0258 140.981 29.5197C139.779 29.0091 138.593 28.4082 137.425 27.7159C137.145 27.9969 136.895 28.235 136.679 28.4297C136.463 28.6243 136.236 28.7911 135.998 28.9293C135.76 29.072 135.505 29.1933 135.232 29.2926C134.964 29.388 134.646 29.4788 134.279 29.5651C134.495 29.3056 134.646 28.9922 134.733 28.6243C134.819 28.2564 134.863 27.8781 134.863 27.4888C134.863 26.8614 134.783 26.2495 134.622 25.6526C134.458 25.0602 134.311 24.558 134.181 24.1473L133.403 21.6816C132.775 22.5037 132.155 23.4121 131.54 24.4068C130.922 25.4015 130.385 26.3533 129.931 27.2617C129.563 26.7427 129.073 26.0075 128.458 25.0556C127.84 24.1038 127.152 23.0767 126.395 21.9736L125.876 23.6606C125.746 24.0934 125.642 24.5255 125.565 24.9583C125.491 25.3911 125.454 25.8343 125.454 26.2885C125.454 26.9587 125.541 27.6186 125.714 28.2674C125.887 28.9163 126.168 29.5217 126.557 30.0842C126.125 29.933 125.764 29.7812 125.474 29.63C125.18 29.4788 124.909 29.3056 124.663 29.1109C124.412 28.9163 124.163 28.7041 123.916 28.4751C123.665 28.2499 123.378 27.9865 123.054 27.6835C122.145 28.5484 121.248 29.1609 120.361 29.5197C119.474 29.8746 118.479 30.0628 117.376 30.0842C117.787 30.0193 118.22 29.7552 118.674 29.2926C119.128 28.8254 119.571 28.2175 120.004 27.4694C120.437 26.7251 120.854 25.8777 121.256 24.9259C121.654 23.974 122.004 22.9683 122.307 21.9087L123.345 18.2752C122.588 17.4752 121.767 16.7874 120.88 16.2119C119.993 15.6409 119.193 15.3554 118.479 15.3554C118.436 15.3554 118.382 15.3554 118.317 15.3554C118.252 15.3554 118.122 15.3664 117.928 15.3878L117.895 15.2905C118.825 14.8149 119.691 14.5768 120.491 14.5768C121.031 14.5768 121.583 14.6786 122.145 14.8817C122.708 15.0894 123.357 15.3989 124.092 15.8096L125.844 9.80774C125.952 9.43985 126.027 9.11542 126.071 8.83447C126.114 8.55352 126.136 8.32643 126.136 8.15318C126.136 7.69899 125.999 7.37457 125.727 7.17991C125.459 6.98526 124.979 6.88793 124.286 6.88793C123.854 6.88793 123.389 6.92038 122.891 6.98526C122.394 7.05014 121.799 7.14747 121.107 7.27724C121.237 7.08258 121.55 6.85549 122.048 6.59595C122.545 6.33641 123.146 6.0879 123.852 5.84978C124.552 5.61165 125.31 5.4131 126.123 5.25284C126.932 5.08868 127.714 5.00627 128.471 5.00627C129.034 5.00627 129.574 5.07116 130.094 5.20093C130.613 5.3307 131.002 5.5578 131.261 5.88222C131.651 5.86081 132.072 5.8063 132.527 5.72001C132.981 5.63371 133.414 5.53184 133.824 5.41505C134.235 5.29371 134.603 5.17303 134.927 5.05169C135.252 4.9349 135.468 4.84406 135.576 4.77918C135.273 5.21196 135.051 5.72455 134.908 6.31695C134.77 6.91388 134.7 7.55819 134.7 8.25051C134.7 9.13748 134.798 10.0608 134.992 11.0211C135.187 11.9859 135.421 12.8787 135.693 13.7008C135.961 14.5229 136.247 15.2256 136.55 15.8096C136.853 16.3935 137.112 16.7504 137.328 16.8802C137.328 18.1565 137.549 19.508 137.99 20.9355C138.436 22.3629 139.011 23.7255 139.716 25.0232C140.417 26.3209 141.204 27.4823 142.078 28.5075C142.956 29.5372 143.817 30.3113 144.66 30.8304ZM129.899 21.9412C130.267 21.4435 130.684 20.9076 131.151 20.332C131.614 19.7611 132.04 19.1946 132.429 18.6321L129.931 10.5215L127.368 18.8916C127.801 19.3458 128.24 19.8538 128.686 20.4164C129.127 20.9789 129.531 21.487 129.899 21.9412ZM167.402 34.3017L167.532 34.7235C165.888 35.5456 164.353 36.0646 162.925 36.2807C161.498 36.4968 160.2 36.6051 159.032 36.6051C157.843 36.6051 156.783 36.4539 155.853 36.1509C154.923 35.8479 154.075 35.4651 153.309 35.0025C152.539 34.5353 151.83 34.0312 151.181 33.4907C150.532 32.9502 149.894 32.446 149.267 31.9788C148.639 31.5162 148.008 31.1334 147.372 30.8304C146.732 30.5274 146.034 30.3762 145.277 30.3762C144.584 30.3762 143.882 30.4411 143.168 30.5708C144.033 29.5327 144.671 28.3044 145.082 26.8854C145.493 25.4709 145.698 23.9851 145.698 22.4278C145.698 21.9736 145.677 21.5019 145.633 21.0133C145.59 20.5286 145.51 20.053 145.393 19.5859C145.272 19.1232 145.099 18.6794 144.874 18.2557C144.645 17.8359 144.347 17.4641 143.979 17.1397C144.584 16.0153 145.002 14.9875 145.231 14.0577C145.456 13.1279 145.569 12.165 145.569 11.1703C145.569 10.1536 145.51 9.36847 145.393 8.81501C145.272 8.26543 145.082 7.82876 144.822 7.50434C144.563 7.17991 144.232 6.90285 143.83 6.67381C143.432 6.44866 142.941 6.14176 142.357 5.75245C142.767 5.79592 143.161 5.82837 143.538 5.84978C143.918 5.87119 144.292 5.88222 144.66 5.88222C145.525 5.88222 146.326 5.83875 147.061 5.75245C147.796 5.66615 148.488 5.56883 149.137 5.46047C149.786 5.35211 150.413 5.25478 151.019 5.16849C151.624 5.08219 152.241 5.03872 152.868 5.03872C153.301 5.03872 153.765 5.07116 154.263 5.13604C153.723 5.13604 153.21 5.34173 152.725 5.75245C152.237 6.16317 151.804 6.68679 151.428 7.32266C151.047 7.96307 150.742 8.66577 150.513 9.43141C150.288 10.2016 150.175 10.9543 150.175 11.6894V19.8973C150.175 20.611 150.203 21.2858 150.26 21.9217C150.312 22.5621 150.385 23.1351 150.48 23.6412C150.58 24.1518 150.694 24.5904 150.824 24.9583C150.954 25.3262 151.095 25.5858 151.246 25.7369C150.878 25.8881 150.452 26.0873 149.968 26.3339C149.479 26.585 149.105 26.9587 148.845 27.4564C148.975 27.8892 149.358 28.4232 149.994 29.059C150.634 29.6994 151.376 30.3392 152.219 30.9796C153.063 31.6155 153.934 32.193 154.834 32.712C155.729 33.2311 156.491 33.588 157.118 33.7826C156.837 33.4147 156.562 32.9891 156.294 32.5044C156.021 32.0158 155.799 31.5876 155.626 31.2197C156.62 31.8251 157.54 32.3338 158.383 32.7445C159.227 33.1552 160.023 33.4907 160.771 33.7502C161.515 34.0097 162.233 34.1934 162.925 34.3017C163.617 34.4101 164.32 34.4639 165.034 34.4639C165.402 34.4639 165.78 34.449 166.169 34.4185C166.559 34.3841 166.969 34.3452 167.402 34.3017ZM159.097 29.2083L159.065 29.1109C159.389 28.9163 159.674 28.5484 159.921 28.0079C160.172 27.4674 160.388 26.851 160.57 26.1587C160.756 25.4664 160.892 24.7461 160.979 23.998C161.065 23.2538 161.108 22.5686 161.108 21.9412C161.108 20.9679 161.005 20.0381 160.797 19.1511C160.594 18.2642 160.308 17.5939 159.94 17.1397C160.286 16.7939 160.572 16.3332 160.797 15.7577C161.026 15.1867 161.206 14.5703 161.335 13.9085C161.465 13.2512 161.552 12.5764 161.595 11.8841C161.639 11.1917 161.66 10.5429 161.66 9.93751C161.66 9.43985 161.649 9.00772 161.627 8.63982C161.606 8.27192 161.584 7.99097 161.563 7.79632C161.065 7.62308 160.552 7.26621 160.025 6.72572C159.493 6.18523 159.097 5.60127 158.837 4.97383C160.221 5.12501 161.537 5.22688 162.782 5.27879C164.024 5.33524 165.196 5.36314 166.299 5.36314C168.656 5.36314 170.56 5.28723 172.009 5.13604C173.458 4.98486 174.604 4.90895 175.448 4.90895C175.621 4.90895 175.772 4.91544 175.902 4.92841C176.032 4.93685 176.151 4.95242 176.259 4.97383C176.129 5.21196 175.993 5.64409 175.85 6.27153C175.712 6.89896 175.578 7.58674 175.448 8.33486C175.318 9.07909 175.206 9.80125 175.111 10.502C175.011 11.2073 174.94 11.7329 174.896 12.0787L174.669 12.176C173.912 11.7433 173.365 11.2566 173.028 10.7161C172.695 10.1756 172.442 9.52679 172.269 8.76959C171.966 8.53146 171.587 8.38028 171.133 8.3154C170.679 8.25051 170.106 8.21807 169.414 8.21807C168.851 8.21807 168.311 8.2291 167.792 8.25051C167.272 8.27192 166.862 8.28295 166.559 8.28295C166.385 9.12645 166.256 10.1536 166.169 11.365C166.083 12.5764 166.018 13.863 165.975 15.2256C166.278 15.2691 166.585 15.295 166.896 15.3035C167.212 15.3165 167.456 15.3229 167.629 15.3229C168.084 15.3229 168.531 15.1432 168.972 14.7844C169.418 14.4295 169.846 13.9714 170.257 13.4088C170.366 13.6684 170.473 13.9649 170.582 14.2978C170.69 14.6352 170.813 14.9706 170.951 15.3035C171.094 15.6409 171.252 15.9608 171.425 16.2638C171.598 16.5668 171.803 16.7939 172.041 16.9451C171.847 17.1397 171.657 17.3882 171.47 17.6912C171.289 17.9942 171.116 18.3187 170.951 18.6645C170.791 19.0103 170.64 19.3568 170.497 19.7027C170.359 20.0485 170.236 20.3625 170.127 20.6435C169.998 20.4054 169.846 20.1458 169.673 19.8649C169.5 19.5839 169.316 19.3244 169.122 19.0863C168.927 18.8481 168.715 18.647 168.486 18.4828C168.261 18.3226 168.019 18.2428 167.759 18.2428C167.564 18.2428 167.283 18.2538 166.916 18.2752C166.548 18.2966 166.213 18.3401 165.91 18.405V18.9889C165.91 20.3515 165.925 21.6427 165.955 22.8625C165.99 24.0869 166.051 25.153 166.137 26.0614L171.62 26.6129C171.923 25.2717 172.457 24.0824 173.222 23.0442C173.993 22.0061 174.82 21.0004 175.707 20.0271L175.902 20.092C175.837 20.5896 175.794 21.0802 175.772 21.5649C175.751 22.0534 175.74 22.5251 175.74 22.9793C175.74 24.1038 175.794 25.1205 175.902 26.0289C176.01 26.9373 176.14 27.6186 176.291 28.0728C175.924 28.1163 175.56 28.1747 175.201 28.248C174.846 28.3258 174.464 28.4511 174.053 28.6243C173.642 28.7975 173.203 29.035 172.736 29.338C172.273 29.641 171.761 30.0304 171.198 30.506C169.381 29.9655 167.586 29.5606 165.813 29.2926C164.039 29.0201 162.439 28.8838 161.011 28.8838C160.319 28.8838 159.681 28.9922 159.097 29.2083ZM186.024 7.66655C185.678 8.3154 185.429 9.00123 185.278 9.72339C185.127 10.4501 185.051 11.1917 185.051 11.9489C185.051 12.5764 185.094 13.2032 185.181 13.8306C185.267 14.458 185.386 15.0848 185.537 15.7123C186.057 15.5611 186.602 15.4313 187.173 15.3229C187.748 15.2146 188.388 15.1283 189.093 15.0634C189.794 14.9985 190.587 14.9447 191.474 14.9012C192.361 14.8577 193.378 14.8149 194.524 14.7714C194.459 15.6363 194.394 16.6317 194.329 17.7561C194.264 18.8806 194.232 20.0706 194.232 21.3248C194.232 22.5141 194.279 23.708 194.375 24.9064C194.474 26.1087 194.665 27.2617 194.946 28.3648C193.821 28.3648 192.74 28.538 191.702 28.8838C190.663 29.2297 189.82 29.7163 189.171 30.3438C188.717 30.0628 188.204 29.7773 187.633 29.4873C187.058 29.1933 186.37 28.9273 185.57 28.6892C184.77 28.4511 183.836 28.2395 182.767 28.0533C181.694 27.8716 180.433 27.7484 178.984 27.6835C179.482 27.0995 179.875 26.4877 180.165 25.8472C180.459 25.2114 180.606 24.5366 180.606 23.8228C180.606 23.5847 180.595 23.3576 180.574 23.1415C180.552 22.9255 180.509 22.6984 180.444 22.4603C180.747 22.4603 181.169 22.5835 181.709 22.8301C182.25 23.0812 182.888 23.4011 183.623 23.7904C184.359 24.1797 185.185 24.6274 186.102 25.1335C187.023 25.6442 188.025 26.1587 189.106 26.6778C189.301 26.1373 189.458 25.406 189.58 24.4847C189.697 23.5678 189.755 22.6225 189.755 21.6492C189.755 20.8057 189.701 20.0271 189.593 19.3134C189.484 18.5996 189.312 18.0916 189.074 17.7886C188.49 17.832 187.841 17.8969 187.127 17.9832C186.413 18.0695 185.678 18.1779 184.921 18.3076C184.164 18.4374 183.407 18.5782 182.65 18.7294C181.893 18.8806 181.169 19.0428 180.476 19.216C180.606 18.3076 180.725 17.3344 180.833 16.2962C180.942 15.2581 180.996 14.1875 180.996 13.0844C180.996 11.8516 180.877 10.6623 180.639 9.51576C180.401 8.36925 179.936 7.34212 179.244 6.43374C179.46 6.45515 179.763 6.49862 180.152 6.56351C180.541 6.62839 181.017 6.66084 181.58 6.66084C182.812 6.66084 183.862 6.44477 184.726 6.01199C185.591 5.57921 186.327 4.84406 186.933 3.80591C187.257 4.02197 187.653 4.24907 188.12 4.4872C188.583 4.72532 189.091 4.94139 189.645 5.13604C190.194 5.3307 190.782 5.48642 191.41 5.60321C192.037 5.72455 192.686 5.78489 193.356 5.78489C193.789 5.78489 194.211 5.74596 194.621 5.6681C195.032 5.59478 195.432 5.50394 195.822 5.39558C195.389 6.5421 194.805 7.50434 194.07 8.28295C193.335 9.06157 192.524 9.45088 191.637 9.45088C191.334 9.45088 190.94 9.40092 190.456 9.30164C189.967 9.20626 189.458 9.07649 188.931 8.91233C188.399 8.75207 187.873 8.5639 187.354 8.34784C186.835 8.13177 186.392 7.90468 186.024 7.66655ZM196.373 8.0883L196.341 7.99097C197.271 7.62308 198.114 7.12606 198.871 6.49862C199.628 5.87119 200.288 5.20093 200.85 4.4872C201.845 4.81162 202.699 5.07116 203.413 5.26581C204.127 5.46047 204.787 5.61165 205.392 5.72001C205.998 5.82836 206.597 5.89714 207.19 5.92764C207.786 5.96203 208.463 5.97954 209.22 5.97954C209.004 5.61165 208.853 5.28074 208.766 4.98681C208.68 4.69677 208.625 4.38987 208.604 4.06545C210.031 4.97383 211.448 5.5857 212.854 5.90168C214.26 6.21313 215.579 6.36885 216.812 6.36885C217.201 6.36885 217.569 6.35133 217.915 6.31695C218.261 6.28645 218.596 6.25012 218.921 6.20664C218.402 6.68225 217.774 7.12995 217.039 7.54976C216.304 7.97345 215.532 8.34784 214.723 8.67226C213.91 8.99668 213.081 9.25622 212.238 9.45088C211.394 9.64553 210.615 9.74286 209.902 9.74286C209.404 9.74286 208.853 9.73183 208.247 9.71042C207.642 9.689 207.09 9.65656 206.593 9.61309C206.549 9.93751 206.523 10.273 206.515 10.6188C206.502 10.9646 206.495 11.3215 206.495 11.6894V15.4203C206.928 15.5066 207.415 15.55 207.955 15.55C208.453 15.55 208.961 15.4352 209.48 15.2062C209.999 14.981 210.507 14.728 211.005 14.447C211.61 14.8577 212.238 15.2905 212.886 15.7447C213.535 16.1989 214.228 16.642 214.963 17.0748C214.335 17.4427 213.676 17.8749 212.984 18.3725C212.291 18.8702 211.643 19.3348 211.037 19.7675C210.583 19.4645 210.103 19.216 209.597 19.0214C209.086 18.8267 208.583 18.7294 208.085 18.7294C207.566 18.7294 207.047 18.8053 206.528 18.9565C206.549 19.7786 206.554 20.6584 206.541 21.5973C206.532 22.5401 206.593 23.4485 206.722 24.3225C206.852 25.2003 207.079 26.0114 207.404 26.7556C207.728 27.5037 208.226 28.0838 208.896 28.4945C207.966 28.9273 207.259 29.4029 206.774 29.922C206.286 30.4411 205.803 31.014 205.327 31.6414C204.959 31.014 204.35 30.4262 203.498 29.8766C202.641 29.3231 201.726 28.8624 200.753 28.4945C200.969 28.1701 201.16 27.7957 201.324 27.372C201.484 26.9522 201.618 26.498 201.726 26.0095C201.835 25.5248 201.916 25.0277 201.973 24.5171C202.025 24.011 202.051 23.5094 202.051 23.0118C202.051 21.9087 201.925 20.8816 201.674 19.9298C201.428 18.9779 201.077 18.2642 200.623 17.7886C201.186 17.0099 201.582 15.9867 201.811 14.7195C202.036 13.4562 202.148 12.1326 202.148 10.7486C202.148 10.4456 202.143 10.1367 202.135 9.82072C202.122 9.50927 202.105 9.20237 202.083 8.89936C201.304 8.66123 200.552 8.43868 199.825 8.23104C199.103 8.02796 198.482 7.92609 197.963 7.92609C197.66 7.92609 197.383 7.94101 197.132 7.97151C196.886 8.00589 196.633 8.04482 196.373 8.0883ZM225.409 25.445C225.798 25.661 226.155 25.8557 226.48 26.0289C226.804 26.2022 227.135 26.3579 227.472 26.4961C227.805 26.6388 228.167 26.7641 228.556 26.8724C228.945 26.9808 229.389 27.0781 229.886 27.1644C230.795 26.7102 231.519 26.4117 232.06 26.269C232.6 26.1308 232.957 26.0075 233.13 25.8991C233.174 23.8014 233.213 21.5992 233.247 19.2939C233.278 16.9924 233.293 14.8039 233.293 12.7276C233.293 12.1871 233.293 11.6505 233.293 11.1184C233.293 10.5909 233.271 10.0783 233.228 9.58065C232.838 9.36458 232.482 9.16993 232.157 8.99668C231.833 8.82344 231.504 8.66577 231.171 8.52303C230.834 8.38482 230.477 8.26154 230.1 8.15318C229.719 8.04483 229.281 7.9475 228.783 7.8612C227.875 8.3154 227.146 8.62879 226.597 8.80203C226.043 8.97527 225.68 9.11542 225.506 9.22378C225.485 9.76427 225.463 10.4177 225.442 11.1833C225.42 11.9535 225.405 12.7814 225.396 13.6684C225.383 14.5554 225.377 15.4852 225.377 16.4584C225.377 17.4317 225.377 18.3836 225.377 19.3134C225.377 20.2866 225.383 21.3358 225.396 22.4603C225.405 23.5847 225.409 24.58 225.409 25.445ZM219.57 17.3668C219.85 17.0638 220.106 16.679 220.335 16.2119C220.56 15.7492 220.759 15.2405 220.932 14.6871C221.105 14.1375 221.242 13.56 221.341 12.9547C221.436 12.3493 221.484 11.7543 221.484 11.1703C221.484 10.1756 221.332 9.23481 221.029 8.34784C220.726 7.46086 220.229 6.81202 219.537 6.4013C220.207 6.35782 220.939 6.27153 221.73 6.14176C222.517 6.01199 223.311 5.84978 224.111 5.65512C224.911 5.46047 225.68 5.24829 226.415 5.01925C227.15 4.7941 227.799 4.55208 228.361 4.29254C229.075 4.4009 229.925 4.57804 230.911 4.8246C231.893 5.0757 232.871 5.3307 233.844 5.59024C234.817 5.84978 235.711 6.0879 236.524 6.30397C237.333 6.52003 237.921 6.63942 238.289 6.66084C237.986 7.1585 237.77 7.7788 237.64 8.52303C237.51 9.27115 237.445 10.0459 237.445 10.8459C237.445 12.0573 237.596 13.2616 237.899 14.46C238.202 15.6623 238.635 16.642 239.197 17.3993C238.657 18.0695 238.213 18.9824 237.867 20.1374C237.521 21.2969 237.348 22.4927 237.348 23.7255C237.348 24.7202 237.499 25.6506 237.802 26.5156C238.105 27.3805 238.602 28.0293 239.294 28.4621C238.624 28.5056 237.885 28.5919 237.075 28.7216C236.262 28.8514 235.451 29.0136 234.642 29.2083C233.829 29.4029 233.044 29.6151 232.287 29.8441C231.53 30.0693 230.881 30.3113 230.34 30.5708C229.627 30.4846 228.783 30.3223 227.81 30.0842C226.837 29.8461 225.87 29.5976 224.91 29.338C223.945 29.0785 223.062 28.8339 222.262 28.6048C221.462 28.3797 220.889 28.246 220.543 28.2026C220.846 27.9216 221.057 27.4609 221.179 26.8205C221.295 26.1846 221.354 25.456 221.354 24.6339C221.354 23.8767 221.306 23.0812 221.211 22.2461C221.112 21.4156 220.982 20.648 220.822 19.9427C220.658 19.242 220.467 18.6535 220.251 18.1779C220.035 17.7023 219.808 17.4317 219.57 17.3668ZM261.809 27.8457C260.901 28.4945 260.194 29.2796 259.688 30.201C259.177 31.1178 258.771 32.0308 258.468 32.9391C258.36 32.5064 258.204 32.0418 258.001 31.5441C257.793 31.0465 257.538 30.5663 257.235 30.1037C256.932 29.6365 256.582 29.2018 256.184 28.7995C255.782 28.4018 255.342 28.0838 254.867 27.8457C255.061 27.651 255.209 27.396 255.308 27.0801C255.403 26.7686 255.479 26.3254 255.535 25.7499C255.587 25.1789 255.624 24.4503 255.645 23.5633C255.667 22.6763 255.699 21.5629 255.743 20.2217C255.656 20.1783 255.371 19.9732 254.886 19.6053C254.398 19.2374 253.872 18.8267 253.31 18.3725C252.552 18.8267 251.813 19.2699 251.091 19.7027C250.364 20.1354 249.697 20.5351 249.092 20.903C249.178 22.5251 249.304 24.0545 249.468 25.4904C249.629 26.9308 249.849 28.246 250.13 29.4354C249.568 29.1544 249.066 28.9598 248.625 28.8514C248.179 28.743 247.751 28.6892 247.34 28.6892C246.972 28.6892 246.612 28.7216 246.257 28.7865C245.898 28.8514 245.53 28.9208 245.154 28.9942C244.773 29.072 244.377 29.1434 243.966 29.2083C243.555 29.2732 243.101 29.3056 242.604 29.3056C242.495 29.3056 242.376 29.3056 242.247 29.3056C242.117 29.3056 241.998 29.2946 241.89 29.2732C242.344 28.9922 242.766 28.6178 243.155 28.1506C243.544 27.688 243.88 27.1754 244.161 26.6129C244.442 26.0503 244.665 25.456 244.829 24.8286C244.989 24.2011 245.069 23.5847 245.069 22.9793C245.069 21.8763 244.939 20.7992 244.68 19.7481C244.42 18.7015 244.01 17.832 243.447 17.1397C244.052 16.0153 244.464 14.9486 244.68 13.9409C244.896 12.9371 245.004 11.9379 245.004 10.9432C245.004 10.3593 244.972 9.72145 244.907 9.02913C243.999 8.89936 243.302 8.56001 242.818 8.01044C242.329 7.45697 242.085 6.59595 242.085 5.42803C242.993 5.62268 243.739 5.75699 244.323 5.83031C244.907 5.90817 245.502 5.9471 246.107 5.9471C246.453 5.9471 246.832 5.93218 247.243 5.90168C247.654 5.86729 248.093 5.78489 248.56 5.65512C249.023 5.52535 249.525 5.32421 250.065 5.05169C250.606 4.78372 251.179 4.41128 251.785 3.93568C252.023 4.13033 252.499 4.37884 253.212 4.68185C253.926 4.98486 254.758 5.27684 255.71 5.5578C256.662 5.83875 257.674 6.07687 258.747 6.27153C259.816 6.46618 260.825 6.56351 261.777 6.56351C262.08 6.56351 262.372 6.55248 262.653 6.53107C262.934 6.50965 263.226 6.47721 263.529 6.43374C263.291 6.9314 262.826 7.44399 262.134 7.97151C261.442 8.50356 260.674 8.9318 259.83 9.25622C259.766 9.55923 259.733 9.88366 259.733 10.2295C259.733 10.5753 259.751 10.9432 259.785 11.3325C259.816 11.7218 259.858 12.1112 259.915 12.5005C259.967 12.8898 260.036 13.2577 260.122 13.6035C260.209 13.9493 260.306 14.2413 260.414 14.4794C260.198 14.5443 259.826 14.7111 259.298 14.9791C258.766 15.2516 258.132 15.6039 257.397 16.0367C257.895 16.4909 258.435 16.9665 259.019 17.4641C259.603 17.9618 260.198 18.3939 260.804 18.7618C260.695 19 260.616 19.4107 260.564 19.9946C260.507 20.5786 260.479 21.2489 260.479 22.0061C260.479 22.5686 260.501 23.1351 260.544 23.706C260.588 24.2816 260.663 24.8331 260.771 25.3606C260.88 25.8927 261.016 26.3748 261.18 26.8075C261.34 27.2403 261.55 27.5862 261.809 27.8457ZM255.353 13.0195L255.191 9.02913C254.023 8.85588 252.942 8.7047 251.947 8.57493C250.952 8.44516 249.968 8.26154 248.995 8.02341C248.951 8.5639 248.93 9.14787 248.93 9.7753C248.93 10.4027 248.93 11.0406 248.93 11.6894V14.2199V16.7828C249.622 16.3721 250.336 15.9543 251.071 15.5306C251.806 15.1108 252.487 14.7215 253.115 14.3626C253.742 14.0077 254.261 13.7054 254.672 13.4543C255.083 13.2077 255.31 13.063 255.353 13.0195ZM264.989 29.2083L264.956 29.1109C265.281 28.9163 265.568 28.5484 265.819 28.0079C266.066 27.4674 266.282 26.851 266.468 26.1587C266.65 25.4664 266.784 24.7461 266.87 23.998C266.957 23.2538 267 22.5686 267 21.9412C267 20.9679 266.898 20.0381 266.695 19.1511C266.488 18.2642 266.2 17.5939 265.832 17.1397C266.178 16.7939 266.466 16.3332 266.695 15.7577C266.92 15.1867 267.098 14.5703 267.227 13.9085C267.357 13.2512 267.443 12.5764 267.487 11.8841C267.53 11.1917 267.552 10.5429 267.552 9.93751C267.552 9.43985 267.541 9.00772 267.519 8.63982C267.498 8.27192 267.476 7.99097 267.454 7.79632C266.957 7.62308 266.442 7.26621 265.91 6.72572C265.383 6.18523 264.989 5.60127 264.729 4.97383C266.113 5.12501 267.427 5.22688 268.668 5.27879C269.914 5.33524 271.088 5.36314 272.191 5.36314C274.548 5.36314 276.452 5.28723 277.901 5.13604C279.35 4.98486 280.496 4.90895 281.34 4.90895C281.513 4.90895 281.664 4.91544 281.794 4.92841C281.924 4.93685 282.042 4.95242 282.151 4.97383C282.021 5.23337 281.887 5.72001 281.749 6.43374C281.606 7.14747 281.47 7.92609 281.34 8.76959C281.21 9.61309 281.095 10.4352 280.996 11.2352C280.9 12.0352 280.832 12.6413 280.788 13.052L280.561 13.1493C279.804 12.5868 279.259 11.9639 278.926 11.2806C278.589 10.6013 278.334 9.76427 278.16 8.76959C277.857 8.53146 277.479 8.38028 277.025 8.3154C276.571 8.25051 275.998 8.21807 275.305 8.21807C274.743 8.21807 274.202 8.2291 273.683 8.25051C273.164 8.27192 272.754 8.28295 272.451 8.28295C272.342 8.91039 272.251 9.6345 272.178 10.4566C272.1 11.2787 272.035 12.1546 271.983 13.0844C271.927 14.0142 271.884 14.981 271.854 15.9848C271.819 16.9924 271.802 17.9942 271.802 18.9889C271.802 20.3515 271.819 21.6427 271.854 22.8625C271.884 24.0869 271.943 25.153 272.029 26.0614L277.512 26.6129C277.815 25.2717 278.351 24.0824 279.121 23.0442C279.886 22.0061 280.712 21.0004 281.599 20.0271L281.794 20.092C281.729 20.5896 281.686 21.0802 281.664 21.5649C281.643 22.0534 281.632 22.5251 281.632 22.9793C281.632 24.1038 281.686 25.1205 281.794 26.0289C281.902 26.9373 282.032 27.6186 282.183 28.0728C281.815 28.1163 281.455 28.1747 281.1 28.248C280.741 28.3258 280.355 28.4511 279.945 28.6243C279.534 28.7975 279.097 29.035 278.634 29.338C278.167 29.641 277.652 30.0304 277.09 30.506C275.273 29.9655 273.478 29.5606 271.704 29.2926C269.931 29.0201 268.33 28.8838 266.903 28.8838C266.211 28.8838 265.573 28.9922 264.989 29.2083ZM285.233 29.2083L285.2 29.1109C285.525 28.9163 285.812 28.5484 286.063 28.0079C286.31 27.4674 286.526 26.851 286.712 26.1587C286.894 25.4664 287.028 24.7461 287.115 23.998C287.201 23.2538 287.244 22.5686 287.244 21.9412C287.244 20.9679 287.142 20.0381 286.939 19.1511C286.732 18.2642 286.444 17.5939 286.076 17.1397C286.422 16.7939 286.71 16.3332 286.939 15.7577C287.164 15.1867 287.342 14.5703 287.471 13.9085C287.601 13.2512 287.687 12.5764 287.731 11.8841C287.774 11.1917 287.796 10.5429 287.796 9.93751C287.796 9.43985 287.785 9.00772 287.763 8.63982C287.742 8.27192 287.72 7.99097 287.698 7.79632C287.201 7.62308 286.686 7.26621 286.154 6.72572C285.627 6.18523 285.233 5.60127 284.973 4.97383C286.357 5.12501 287.671 5.22688 288.912 5.27879C290.158 5.33524 291.332 5.36314 292.435 5.36314C294.792 5.36314 296.696 5.28723 298.145 5.13604C299.594 4.98486 300.74 4.90895 301.584 4.90895C301.757 4.90895 301.908 4.91544 302.038 4.92841C302.168 4.93685 302.287 4.95242 302.395 4.97383C302.265 5.21196 302.131 5.64409 301.993 6.27153C301.85 6.89896 301.714 7.58674 301.584 8.33486C301.454 9.07909 301.339 9.80125 301.24 10.502C301.145 11.2073 301.076 11.7329 301.032 12.0787L300.805 12.176C300.048 11.7433 299.501 11.2566 299.164 10.7161C298.831 10.1756 298.578 9.52679 298.404 8.76959C298.101 8.53146 297.723 8.38028 297.269 8.3154C296.815 8.25051 296.242 8.21807 295.55 8.21807C294.987 8.21807 294.446 8.2291 293.927 8.25051C293.408 8.27192 292.998 8.28295 292.695 8.28295C292.521 9.12645 292.392 10.1536 292.305 11.365C292.219 12.5764 292.154 13.863 292.111 15.2256C292.414 15.2691 292.722 15.295 293.038 15.3035C293.35 15.3165 293.592 15.3229 293.765 15.3229C294.219 15.3229 294.667 15.1432 295.108 14.7844C295.554 14.4295 295.982 13.9714 296.393 13.4088C296.501 13.6684 296.609 13.9649 296.717 14.2978C296.826 14.6352 296.951 14.9706 297.094 15.3035C297.232 15.6409 297.388 15.9608 297.561 16.2638C297.734 16.5668 297.939 16.7939 298.177 16.9451C297.983 17.1397 297.795 17.3882 297.613 17.6912C297.427 17.9942 297.254 18.3187 297.094 18.6645C296.93 19.0103 296.778 19.3568 296.64 19.7027C296.497 20.0485 296.372 20.3625 296.263 20.6435C296.133 20.4054 295.982 20.1458 295.809 19.8649C295.636 19.5839 295.452 19.3244 295.258 19.0863C295.063 18.8481 294.851 18.647 294.622 18.4828C294.397 18.3226 294.154 18.2428 293.895 18.2428C293.7 18.2428 293.419 18.2538 293.051 18.2752C292.684 18.2966 292.349 18.3401 292.046 18.405V18.9889C292.046 20.3515 292.063 21.6427 292.098 22.8625C292.128 24.0869 292.187 25.153 292.273 26.0614L297.756 26.6129C298.059 25.2717 298.595 24.0824 299.365 23.0442C300.13 22.0061 300.956 21.0004 301.843 20.0271L302.038 20.092C301.973 20.5896 301.93 21.0802 301.908 21.5649C301.887 22.0534 301.876 22.5251 301.876 22.9793C301.876 24.1038 301.93 25.1205 302.038 26.0289C302.146 26.9373 302.276 27.6186 302.427 28.0728C302.059 28.1163 301.699 28.1747 301.344 28.248C300.985 28.3258 300.599 28.4511 300.189 28.6243C299.778 28.7975 299.341 29.035 298.878 29.338C298.411 29.641 297.896 30.0304 297.334 30.506C295.517 29.9655 293.722 29.5606 291.948 29.2926C290.175 29.0201 288.574 28.8838 287.147 28.8838C286.455 28.8838 285.817 28.9922 285.233 29.2083Z" fill="#3C2C32"/>
<path d="M155.301 61.9426L154.75 61.8453L148.618 51.0744V56.0381C148.618 57.3793 148.662 58.5037 148.748 59.4121C148.834 60.3205 148.975 61.1102 149.17 61.7804C149.364 62.4507 149.613 63.0392 149.916 63.5453C150.219 64.0559 150.586 64.5705 151.019 65.0895C150.543 64.9598 150.128 64.83 149.773 64.7002C149.414 64.5705 149.068 64.4193 148.735 64.246C148.397 64.0728 148.052 63.8567 147.697 63.5972C147.338 63.3376 146.92 63.0132 146.444 62.6239C146.141 63.143 145.813 63.6251 145.458 64.0708C145.099 64.5121 144.678 64.9273 144.193 65.3166C143.704 65.7059 143.146 66.0628 142.519 66.3872C141.892 66.7117 141.156 67.0036 140.313 67.2632C140.962 66.6357 141.567 65.9285 142.13 65.1414C142.692 64.3498 143.185 63.5044 143.609 62.6044C144.029 61.709 144.364 60.7857 144.615 59.8339C144.861 58.882 144.985 57.9198 144.985 56.9465C144.985 56.0381 144.872 55.1622 144.647 54.3187C144.418 53.4752 144.044 52.6641 143.525 51.8855C144.584 49.8527 145.114 48.0359 145.114 46.4352C145.114 45.0726 144.764 43.8463 144.063 42.7562C143.358 41.6616 142.357 40.6494 141.059 39.7196C141.275 39.6547 141.524 39.6223 141.805 39.6223C142.238 39.6223 142.72 39.6697 143.252 39.765C143.78 39.8643 144.364 39.9681 145.004 40.0765C145.64 40.1848 146.336 40.2861 147.093 40.3814C147.851 40.4807 148.683 40.5307 149.591 40.5307C149.807 40.5307 150.02 40.5307 150.227 40.5307C150.43 40.5307 150.641 40.5196 150.857 40.4982C150.662 40.6494 150.485 40.8441 150.325 41.0822C150.16 41.3203 150.013 41.5799 149.883 41.8608C149.754 42.1418 149.652 42.4337 149.578 42.7368C149.501 43.0398 149.462 43.3207 149.462 43.5803L155.918 54.708L161.303 43.7749C161.044 43.0177 160.747 42.3799 160.414 41.8608C160.077 41.3417 159.637 40.8551 159.097 40.4009C159.248 40.4444 159.389 40.4658 159.519 40.4658C159.649 40.4658 159.789 40.4658 159.94 40.4658C160.676 40.4658 161.444 40.4379 162.244 40.3814C163.044 40.3295 163.845 40.2562 164.645 40.1608C165.445 40.0616 166.223 39.9532 166.98 39.8364C167.738 39.7151 168.462 39.6009 169.154 39.4925C168.505 39.9467 167.982 40.4398 167.584 40.9719C167.182 41.4994 166.879 42.0555 166.676 42.6394C166.468 43.2234 166.327 43.8333 166.254 44.4692C166.176 45.1096 166.137 45.7649 166.137 46.4352C166.137 47.2573 166.278 48.1112 166.559 48.9981C166.84 49.8851 167.251 50.8473 167.792 51.8855C167.402 52.5778 167.052 53.4427 166.74 54.4809C166.424 55.519 166.267 56.5572 166.267 57.5954C166.267 58.7198 166.468 59.769 166.87 60.7423C167.268 61.7155 167.845 62.4403 168.603 62.9159C168.148 63.154 167.694 63.4285 167.24 63.7399C166.786 64.0559 166.364 64.3933 165.975 64.7521C165.585 65.1071 165.24 65.4678 164.937 65.8357C164.634 66.2036 164.407 66.5494 164.255 66.8739C164.147 66.5494 163.959 66.1926 163.691 65.8033C163.418 65.414 163.087 65.0357 162.698 64.6678C162.309 64.2999 161.887 63.9586 161.433 63.6426C160.979 63.3312 160.524 63.0891 160.07 62.9159C160.416 62.6129 160.693 62.2132 160.901 61.7155C161.104 61.2179 161.256 60.6663 161.355 60.061C161.45 59.4556 161.515 58.8067 161.55 58.1144C161.58 57.4221 161.595 56.7304 161.595 56.0381V49.9065L155.301 61.9426ZM177.557 60.1907C177.946 60.4068 178.303 60.6015 178.627 60.7747C178.952 60.9479 179.281 61.1037 179.614 61.2419C179.951 61.3846 180.314 61.5098 180.704 61.6182C181.093 61.7266 181.536 61.8239 182.034 61.9102C182.942 61.456 183.667 61.1575 184.207 61.0148C184.748 60.8766 185.105 60.7533 185.278 60.6449C185.321 58.5472 185.358 56.345 185.388 54.0397C185.423 51.7382 185.44 49.5496 185.44 47.4733C185.44 46.9328 185.44 46.3962 185.44 45.8642C185.44 45.3367 185.419 44.8241 185.375 44.3264C184.986 44.1104 184.629 43.9157 184.305 43.7425C183.98 43.5692 183.649 43.4116 183.312 43.2688C182.979 43.1306 182.624 43.0073 182.248 42.899C181.867 42.7906 181.428 42.6933 180.931 42.607C180.022 43.0612 179.291 43.3746 178.738 43.5478C178.188 43.7211 177.827 43.8612 177.654 43.9696C177.633 44.5101 177.611 45.1634 177.589 45.9291C177.568 46.6993 177.552 47.5272 177.544 48.4142C177.531 49.3011 177.524 50.2309 177.524 51.2042C177.524 52.1775 177.524 53.1293 177.524 54.0591C177.524 55.0324 177.531 56.0816 177.544 57.206C177.552 58.3305 177.557 59.3258 177.557 60.1907ZM171.717 52.1126C171.998 51.8096 172.251 51.4248 172.476 50.9576C172.705 50.495 172.906 49.9863 173.08 49.4329C173.253 48.8833 173.389 48.3058 173.488 47.7004C173.584 47.0951 173.631 46.5001 173.631 45.9161C173.631 44.9214 173.48 43.9806 173.177 43.0936C172.874 42.2066 172.377 41.5578 171.685 41.1471C172.355 41.1036 173.084 41.0173 173.871 40.8875C174.663 40.7578 175.459 40.5956 176.259 40.4009C177.059 40.2062 177.827 39.9941 178.562 39.765C179.298 39.5399 179.946 39.2979 180.509 39.0383C181.223 39.1467 182.073 39.3238 183.059 39.5704C184.041 39.8215 185.018 40.0765 185.992 40.336C186.965 40.5956 187.856 40.8337 188.665 41.0497C189.478 41.2658 190.068 41.3852 190.436 41.4066C190.133 41.9043 189.917 42.5246 189.787 43.2688C189.658 44.0169 189.593 44.7917 189.593 45.5917C189.593 46.8031 189.744 48.0073 190.047 49.2058C190.35 50.4081 190.782 51.3878 191.345 52.145C190.804 52.8153 190.36 53.7282 190.015 54.8832C189.669 56.0427 189.495 57.2385 189.495 58.4713C189.495 59.466 189.647 60.3964 189.95 61.2613C190.253 62.1262 190.75 62.7751 191.442 63.2079C190.772 63.2514 190.032 63.3376 189.223 63.4674C188.41 63.5972 187.599 63.7594 186.79 63.9541C185.977 64.1487 185.192 64.3609 184.434 64.5899C183.677 64.8151 183.028 65.0571 182.488 65.3166C181.774 65.2303 180.931 65.0681 179.957 64.83C178.984 64.5919 178.017 64.3434 177.057 64.0838C176.092 63.8243 175.21 63.5797 174.41 63.3506C173.61 63.1255 173.036 62.9918 172.69 62.9483C172.993 62.6674 173.205 62.2067 173.326 61.5663C173.443 60.9304 173.501 60.2018 173.501 59.3797C173.501 58.6225 173.454 57.827 173.359 56.9919C173.259 56.1614 173.127 55.3938 172.963 54.6885C172.803 53.9878 172.614 53.3993 172.398 52.9237C172.182 52.448 171.955 52.1775 171.717 52.1126ZM212.108 41.6986C212.173 42.7368 212.265 43.6062 212.387 44.307C212.504 45.0123 212.648 45.6825 212.822 46.3184C212.995 46.9588 213.2 47.6401 213.438 48.3623C213.676 49.089 213.946 49.9928 214.249 51.0744C214.033 51.5072 213.845 52.0522 213.684 52.7095C213.52 53.3714 213.38 54.0591 213.263 54.7729C213.141 55.4866 213.055 56.1893 213.003 56.8816C212.947 57.5739 212.919 58.1793 212.919 58.6984C212.919 59.1091 212.936 59.5095 212.971 59.8988C213.001 60.2881 213.07 60.656 213.178 61.0018C211.924 61.2399 210.832 61.7739 209.902 62.6044C208.972 63.4395 208.052 64.4407 207.144 65.6086C205.392 64.8514 203.366 64.3174 201.064 64.006C198.759 63.69 196.297 63.5323 193.681 63.5323C193.919 63.4025 194.221 63.1579 194.589 62.7991C194.957 62.4442 195.314 62.0335 195.66 61.5663C196.005 61.1037 196.304 60.617 196.555 60.1064C196.801 59.6003 196.925 59.1312 196.925 58.6984C196.925 58.2656 196.92 57.779 196.912 57.2385C196.899 56.698 196.855 56.1465 196.782 55.5839C196.704 55.0214 196.585 54.4744 196.425 53.9423C196.261 53.4148 196.038 52.9561 195.757 52.5668C195.995 52.3072 196.19 51.9114 196.341 51.3794C196.492 50.8519 196.607 50.2679 196.685 49.6275C196.758 48.9916 196.806 48.3318 196.827 47.6485C196.849 46.9692 196.86 46.3489 196.86 45.7863C196.86 45.094 196.806 44.4997 196.698 44.002C196.589 43.5043 196.401 43.0437 196.133 42.62C195.861 42.2002 195.493 41.7849 195.03 41.3742C194.563 40.9635 193.973 40.4872 193.259 39.9467C194.795 39.9467 196.174 39.9402 197.398 39.9272C198.618 39.9188 199.747 39.8967 200.785 39.8624C201.824 39.8319 202.797 39.778 203.705 39.7001C204.614 39.6268 205.522 39.5139 206.43 39.3627C207.101 39.7735 207.955 40.1952 208.993 40.628C210.031 41.0608 211.07 41.4176 212.108 41.6986ZM208.474 59.185C208.474 58.7094 208.507 58.0755 208.572 57.2839C208.636 56.4969 208.729 55.6962 208.851 54.8832C208.967 54.0741 209.108 53.313 209.272 52.5992C209.433 51.8855 209.61 51.3554 209.804 51.0096C209.653 50.5768 209.48 50.0298 209.285 49.368C209.091 48.7107 208.896 48.0184 208.701 47.2917C208.507 46.5695 208.333 45.8447 208.182 45.118C208.031 44.3959 207.923 43.7535 207.858 43.1909C207.512 43.1909 207.075 43.2059 206.547 43.2364C206.015 43.2708 205.442 43.3253 204.828 43.3986C204.209 43.4764 203.593 43.5738 202.979 43.6906C202.36 43.8119 201.791 43.9585 201.272 44.1318C201.229 45.105 201.196 46.223 201.175 47.4863C201.153 48.7535 201.142 50.1012 201.142 51.5286C201.142 52.9126 201.17 54.366 201.227 55.8889C201.279 57.4156 201.369 58.9904 201.499 60.6125C201.715 60.6774 202.003 60.7533 202.362 60.8396C202.717 60.9259 203.089 61.0128 203.478 61.0991C203.867 61.1854 204.252 61.2659 204.633 61.3392C205.009 61.4171 205.338 61.4774 205.619 61.5209C205.922 61.0232 206.333 60.569 206.852 60.1583C207.371 59.7476 207.912 59.4232 208.474 59.185ZM217.071 63.9541L217.039 63.8567C217.363 63.6621 217.651 63.2942 217.902 62.7537C218.149 62.2132 218.365 61.5968 218.551 60.9045C218.733 60.2122 218.867 59.4919 218.953 58.7438C219.039 57.9996 219.083 57.3144 219.083 56.687C219.083 55.7137 218.981 54.7839 218.778 53.8969C218.57 53.0099 218.283 52.3397 217.915 51.8855C218.261 51.5397 218.549 51.079 218.778 50.5035C219.003 49.9325 219.18 49.3161 219.31 48.6542C219.44 47.997 219.526 47.3222 219.57 46.6298C219.613 45.9375 219.634 45.2887 219.634 44.6833C219.634 44.1856 219.623 43.7535 219.602 43.3856C219.581 43.0177 219.559 42.7368 219.537 42.5421C219.039 42.3689 218.527 42.012 217.999 41.4715C217.467 40.931 217.071 40.347 216.812 39.7196C218.196 39.8708 219.511 39.9727 220.757 40.0246C221.998 40.081 223.171 40.1089 224.274 40.1089C226.631 40.1089 228.535 40.033 229.984 39.8818C231.432 39.7306 232.579 39.6547 233.422 39.6547C233.596 39.6547 233.747 39.6612 233.877 39.6742C234.006 39.6826 234.125 39.6982 234.233 39.7196C234.104 39.9577 233.969 40.3899 233.831 41.0173C233.688 41.6447 233.552 42.3325 233.422 43.0806C233.293 43.8249 233.18 44.547 233.085 45.2478C232.986 45.9531 232.914 46.4787 232.871 46.8245L232.644 46.9218C231.887 46.489 231.342 46.0024 231.009 45.4619C230.671 44.9214 230.416 44.2726 230.243 43.5154C229.94 43.2772 229.562 43.1261 229.108 43.0612C228.653 42.9963 228.08 42.9638 227.388 42.9638C226.826 42.9638 226.285 42.9749 225.766 42.9963C225.247 43.0177 224.836 43.0287 224.533 43.0287C224.36 43.8722 224.23 44.8994 224.144 46.1108C224.058 47.3222 223.993 48.6088 223.949 49.9714C224.252 50.0149 224.561 50.0408 224.877 50.0493C225.189 50.0622 225.431 50.0687 225.604 50.0687C226.058 50.0687 226.506 49.889 226.947 49.5302C227.393 49.1753 227.821 48.7172 228.232 48.1546C228.34 48.4142 228.448 48.7107 228.556 49.0435C228.664 49.3809 228.79 49.7164 228.932 50.0493C229.071 50.3867 229.226 50.7065 229.4 51.0096C229.573 51.3126 229.778 51.5397 230.016 51.6908C229.821 51.8855 229.633 52.134 229.451 52.437C229.265 52.74 229.093 53.0645 228.932 53.4103C228.768 53.7561 228.616 54.1026 228.478 54.4484C228.335 54.7943 228.21 55.1083 228.102 55.3893C227.972 55.1511 227.821 54.8916 227.648 54.6107C227.474 54.3297 227.291 54.0702 227.096 53.832C226.902 53.5939 226.689 53.3928 226.46 53.2286C226.235 53.0683 225.993 52.9885 225.734 52.9885C225.539 52.9885 225.258 52.9996 224.89 53.021C224.522 53.0424 224.187 53.0859 223.884 53.1507V53.7347C223.884 55.0973 223.902 56.3885 223.936 57.6083C223.967 58.8327 224.025 59.8988 224.111 60.8071L229.594 61.3587C229.897 60.0175 230.433 58.8282 231.203 57.79C231.969 56.7518 232.795 55.7461 233.682 54.7729L233.877 54.8378C233.812 55.3354 233.768 55.8259 233.747 56.3106C233.725 56.7992 233.714 57.2709 233.714 57.7251C233.714 58.8496 233.768 59.8663 233.877 60.7747C233.985 61.6831 234.115 62.3644 234.266 62.8186C233.898 62.862 233.537 62.9204 233.182 62.9938C232.824 63.0716 232.438 63.1968 232.027 63.3701C231.617 63.5433 231.179 63.7808 230.717 64.0838C230.25 64.3868 229.735 64.7761 229.172 65.2517C227.356 64.7113 225.56 64.3064 223.787 64.0384C222.014 63.7659 220.413 63.6296 218.986 63.6296C218.293 63.6296 217.655 63.738 217.071 63.9541ZM256.943 62.5915C256.035 63.2403 255.328 64.0254 254.821 64.9468C254.311 65.8636 253.905 66.7765 253.602 67.6849C253.493 67.2521 253.337 66.7876 253.134 66.2899C252.927 65.7922 252.672 65.3121 252.369 64.8495C252.066 64.3823 251.715 63.9476 251.318 63.5453C250.915 63.1475 250.476 62.8296 250 62.5915C250.195 62.3968 250.342 62.1418 250.442 61.8258C250.537 61.5144 250.612 61.0712 250.669 60.4957C250.721 59.9247 250.758 59.1961 250.779 58.3091C250.8 57.4221 250.833 56.3087 250.876 54.9675C250.79 54.924 250.505 54.719 250.02 54.3511C249.531 53.9832 249.006 53.5725 248.443 53.1183C247.686 53.5725 246.946 54.0157 246.224 54.4484C245.497 54.8812 244.831 55.2809 244.226 55.6488C244.312 57.2709 244.438 58.8003 244.602 60.2362C244.762 61.6766 244.983 62.9918 245.264 64.1811C244.701 63.9002 244.2 63.7055 243.759 63.5972C243.313 63.4888 242.885 63.435 242.474 63.435C242.106 63.435 241.745 63.4674 241.39 63.5323C241.031 63.5972 240.664 63.6666 240.287 63.7399C239.906 63.8178 239.511 63.8892 239.1 63.9541C238.689 64.0189 238.235 64.0514 237.737 64.0514C237.629 64.0514 237.51 64.0514 237.38 64.0514C237.251 64.0514 237.132 64.0403 237.024 64.0189C237.478 63.738 237.899 63.3636 238.289 62.8964C238.678 62.4338 239.014 61.9212 239.294 61.3587C239.575 60.7961 239.799 60.2018 239.963 59.5743C240.123 58.9469 240.203 58.3305 240.203 57.7251C240.203 56.6221 240.073 55.545 239.814 54.4939C239.554 53.4473 239.143 52.5778 238.581 51.8855C239.186 50.761 239.597 49.6943 239.814 48.6867C240.03 47.6829 240.138 46.6837 240.138 45.689C240.138 45.105 240.106 44.4672 240.041 43.7749C239.132 43.6451 238.436 43.3058 237.951 42.7562C237.463 42.2028 237.218 41.3417 237.218 40.1738C238.127 40.3685 238.873 40.5028 239.457 40.5761C240.041 40.654 240.636 40.6929 241.241 40.6929C241.587 40.6929 241.966 40.678 242.376 40.6475C242.787 40.6131 243.226 40.5307 243.694 40.4009C244.156 40.2711 244.658 40.07 245.199 39.7975C245.739 39.5295 246.313 39.1571 246.918 38.6815C247.157 38.8761 247.632 39.1246 248.346 39.4276C249.06 39.7306 249.892 40.0226 250.844 40.3036C251.796 40.5845 252.808 40.8227 253.881 41.0173C254.949 41.212 255.959 41.3093 256.911 41.3093C257.214 41.3093 257.506 41.2983 257.787 41.2768C258.068 41.2554 258.36 41.223 258.663 41.1795C258.424 41.6772 257.96 42.1898 257.268 42.7173C256.575 43.2493 255.808 43.6776 254.964 44.002C254.899 44.305 254.867 44.6294 254.867 44.9753C254.867 45.3211 254.884 45.689 254.919 46.0783C254.949 46.4676 254.992 46.8569 255.049 47.2462C255.1 47.6355 255.17 48.0034 255.256 48.3493C255.342 48.6951 255.44 48.9871 255.548 49.2252C255.332 49.2901 254.96 49.4569 254.432 49.7248C253.9 49.9974 253.266 50.3497 252.531 50.7825C253.029 51.2366 253.569 51.7123 254.153 52.2099C254.737 52.7076 255.332 53.1397 255.937 53.5076C255.829 53.7457 255.749 54.1565 255.697 54.7404C255.641 55.3244 255.613 55.9946 255.613 56.7518C255.613 57.3144 255.634 57.8808 255.678 58.4518C255.721 59.0274 255.797 59.5789 255.905 60.1064C256.013 60.6384 256.15 61.1205 256.314 61.5533C256.474 61.9861 256.684 62.3319 256.943 62.5915ZM250.487 47.7653L250.325 43.7749C249.157 43.6017 248.075 43.4505 247.081 43.3207C246.086 43.1909 245.102 43.0073 244.128 42.7692C244.085 43.3097 244.064 43.8936 244.064 44.5211C244.064 45.1485 244.064 45.7863 244.064 46.4352V48.9657V51.5286C244.756 51.1179 245.47 50.7001 246.205 50.2764C246.94 49.8566 247.621 49.4672 248.249 49.1084C248.876 48.7535 249.395 48.4511 249.806 48.2C250.217 47.9535 250.444 47.8088 250.487 47.7653Z" fill="#3C2C32"/>
</g>
</g>
</g>
</g>
<g clip-path="url(#clip6_45_41)">
<g clip-path="url(#clip7_45_41)">
<path d="M81.5429 21.8655C81.5429 1.7906 55.634 -6.67142 43.7872 9.48209C33.4814 7.23931 21.5382 12.6192 19.1304 25.6356C8.86586 27.4656 0.128652 36.4918 0.362562 47.8708C0.366202 53.8666 2.7487 59.616 6.98709 63.8569C11.2255 68.0979 16.9734 70.4839 22.9692 70.4912H55.4001C75.2274 69.872 82.2309 50.086 75.1861 36.8495C77.1977 34.9069 78.7974 32.5789 79.8896 30.0045C80.9818 27.4301 81.5441 24.662 81.5429 21.8655ZM60.6286 5.07909C75.5713 5.07909 82.6437 23.1039 72.8607 33.3684C69.3953 29.2515 64.5658 26.5169 59.2527 25.6631C58.7542 22.4512 57.4644 19.4138 55.4996 16.8244C53.5348 14.2351 50.9567 12.1753 47.9975 10.8305C49.5653 9.01967 51.5053 7.56843 53.6852 6.57585C55.8651 5.58328 58.2334 5.07274 60.6286 5.07909Z" fill="#FBB168"/>
</g>
</g>
</g>
</g>
<defs>
<clipPath id="clip0_45_41">
<rect width="302.069" height="69.839" fill="white" transform="translate(0.357971 0.825928)"/>
</clipPath>
<clipPath id="clip1_45_41">
<rect width="302.069" height="69.839" fill="white" transform="translate(0.357971 0.825928)"/>
</clipPath>
<clipPath id="clip2_45_41">
<rect width="202.44" height="69.4915" fill="white" transform="translate(99.987 0.999664)"/>
</clipPath>
<clipPath id="clip3_45_41">
<rect width="202.44" height="69.4915" fill="white" transform="translate(99.987 0.999664)"/>
</clipPath>
<clipPath id="clip4_45_41">
<rect width="202.44" height="69.4915" fill="white" transform="translate(99.987 0.999664)"/>
</clipPath>
<clipPath id="clip5_45_41">
<rect width="202.44" height="69.4915" fill="white" transform="translate(99.987 0.999664)"/>
</clipPath>
<clipPath id="clip6_45_41">
<rect width="81.1849" height="69.4915" fill="white" transform="translate(0.357971 0.999664)"/>
</clipPath>
<clipPath id="clip7_45_41">
<rect width="81.1849" height="69.4915" fill="white" transform="translate(0.357971 0.999664)"/>
</clipPath>
</defs>
</svg>
